<svg width="427" height="235" viewBox="0 0 427 235" fill="none" xmlns="http://www.w3.org/2000/svg">
<path d="M271 136.743C271 160.633 244.25 180 211.253 180H59.7468C26.7501 180 0 160.633 0 136.743V94.2567C0 70.3671 26.7501 51 59.7468 51H211.249C244.246 51 270.996 70.3671 270.996 94.2567L271 136.743Z" fill="black"/>
<path d="M259.253 234.027C244.508 234.027 226.412 223.581 219.04 210.811L178.578 140.73C171.206 127.96 171.206 107.068 178.578 94.2972L219.04 24.2165C226.412 11.4461 244.508 1 259.253 1H340.176C354.921 1 373.017 11.449 380.389 24.2165L420.851 94.2972C428.223 107.068 428.223 127.963 420.851 140.73L380.389 210.811C373.017 223.581 354.921 234.027 340.176 234.027H259.253Z" fill="white"/>
<path d="M259.253 234.027C244.508 234.027 226.412 223.581 219.04 210.811L178.578 140.73C171.206 127.96 171.206 107.068 178.578 94.2972L219.04 24.2165C226.412 11.4461 244.508 1 259.253 1H340.176C354.921 1 373.017 11.449 380.389 24.2165L420.851 94.2972C428.223 107.068 428.223 127.963 420.851 140.73L380.389 210.811C373.017 223.581 354.921 234.027 340.176 234.027H259.253Z" stroke="black" stroke-miterlimit="10" stroke-dasharray="2.03 2.03 2.03 2.03"/>
<path d="M266.645 212.736C254.595 212.736 239.805 204.197 233.781 193.763L200.715 136.487C194.689 126.052 194.689 108.975 200.715 98.5376L233.781 41.262C239.808 30.8274 254.595 22.2888 266.645 22.2888H332.781C344.83 22.2888 359.621 30.8274 365.644 41.262L398.711 98.5376C404.737 108.972 404.737 126.049 398.711 136.487L365.644 193.763C359.618 204.197 344.83 212.736 332.781 212.736H266.645Z" fill="#FEA800"/>
<path d="M53.8023 127.25C57.0023 124.483 59.519 122.217 61.3523 120.45C63.219 118.65 64.769 116.783 66.0023 114.85C67.2357 112.917 67.8523 110.983 67.8523 109.05C67.8523 107.05 67.369 105.483 66.4023 104.35C65.469 103.217 63.9857 102.65 61.9523 102.65C59.9857 102.65 58.4523 103.283 57.3523 104.55C56.2857 105.783 55.719 107.45 55.6523 109.55H50.1523C50.2523 105.75 51.3857 102.85 53.5523 100.85C55.7523 98.8167 58.5357 97.8 61.9023 97.8C65.5357 97.8 68.369 98.8 70.4023 100.8C72.469 102.8 73.5023 105.467 73.5023 108.8C73.5023 111.2 72.8857 113.517 71.6523 115.75C70.4523 117.95 69.0023 119.933 67.3023 121.7C65.6357 123.433 63.5023 125.45 60.9023 127.75L58.6523 129.75H74.5023V134.5H50.2023V130.35L53.8023 127.25ZM79.5098 116.3C79.5098 110.533 80.4764 106.033 82.4098 102.8C84.3764 99.5333 87.7431 97.9 92.5098 97.9C97.2764 97.9 100.626 99.5333 102.56 102.8C104.526 106.033 105.51 110.533 105.51 116.3C105.51 122.133 104.526 126.7 102.56 130C100.626 133.267 97.2764 134.9 92.5098 134.9C87.7431 134.9 84.3764 133.267 82.4098 130C80.4764 126.7 79.5098 122.133 79.5098 116.3ZM99.9098 116.3C99.9098 113.6 99.7264 111.317 99.3598 109.45C99.0264 107.583 98.3264 106.067 97.2598 104.9C96.1931 103.7 94.6098 103.1 92.5098 103.1C90.4098 103.1 88.8264 103.7 87.7598 104.9C86.6931 106.067 85.9764 107.583 85.6098 109.45C85.2764 111.317 85.1098 113.6 85.1098 116.3C85.1098 119.1 85.2764 121.45 85.6098 123.35C85.9431 125.25 86.6431 126.783 87.7098 127.95C88.8098 129.117 90.4098 129.7 92.5098 129.7C94.6098 129.7 96.1931 129.117 97.2598 127.95C98.3598 126.783 99.0764 125.25 99.4098 123.35C99.7431 121.45 99.9098 119.1 99.9098 116.3ZM110.791 103.75V98.55H121.191V135H115.441V103.75H110.791ZM152.121 102.95L138.221 135H132.471L146.521 103.55H128.021V98.7H152.121V102.95Z" fill="white"/>
<path d="M346.278 65.7172L335.58 63.5869L338.495 68.5162L293.086 93.7674L287.268 85.6658L253.151 105.814L254.798 108.607L286.362 89.967L292.137 98.0049L340.147 71.3064L342.993 76.117L346.278 65.7172Z" fill="white"/>
<path d="M253.974 171.44H269.479V121.12H253.974V171.44ZM257.184 168.3V150.916H266.275V168.3H257.184ZM266.272 124.261V147.674H257.181V124.261H266.272Z" fill="white"/>
<path d="M277.639 171.44H293.145V111.8H277.639V171.44ZM280.846 114.94H289.935V134.704H280.846V114.94ZM280.846 137.946H289.935V168.3H280.846V137.946Z" fill="white"/>
<path d="M301.145 171.44H316.653V105.313H301.145V171.44ZM304.355 108.454H313.443V118.692H304.355V108.454ZM304.355 121.936H313.443V168.3H304.355V121.936Z" fill="white"/>
<path d="M323.895 92.1697V171.44H339.401V92.1697H323.895ZM336.194 168.3H327.105V106.934H336.194V168.3ZM336.194 103.693H327.105V95.3102H336.194V103.693Z" fill="white"/>
</svg>
