<svg width="438" height="235" viewBox="0 0 438 235" fill="none" xmlns="http://www.w3.org/2000/svg">
<path d="M156 98.285C156 74.3949 183.836 55.0273 218.173 55.0273H375.827C410.164 55.0273 438 74.3949 438 98.285V140.77C438 164.66 410.164 184.027 375.827 184.027H218.173C183.836 184.027 156 164.66 156 140.77V98.285Z" fill="black"/>
<path d="M167.642 1C182.386 1 200.482 11.4461 207.854 24.2165L248.316 94.2971C255.688 107.065 255.688 127.96 248.316 140.73L207.854 210.811C200.482 223.581 182.386 234.027 167.642 234.027H86.7183C71.9739 234.027 53.8777 223.581 46.5055 210.811L6.04379 140.73C-1.3284 127.96 -1.3284 107.065 6.04379 94.2971L46.5055 24.2165C53.8777 11.4461 71.9739 1 86.7183 1H167.642Z" fill="white"/>
<path d="M167.642 1C182.386 1 200.482 11.4461 207.854 24.2165L248.316 94.2971C255.688 107.068 255.688 127.963 248.316 140.73L207.854 210.811C200.482 223.578 182.386 234.027 167.642 234.027H86.7183C71.9739 234.027 53.8777 223.578 46.5055 210.811L6.04379 140.73C-1.3284 127.96 -1.3284 107.065 6.04379 94.2971L46.5055 24.2165C53.8777 11.4461 71.9739 1 86.7183 1H167.642Z" stroke="black" stroke-miterlimit="10" stroke-dasharray="2.03 2.03 2.03 2.03"/>
<path d="M28.6165 136.24L28.6165 136.24C25.6579 131.117 24.1638 124.331 24.1638 117.516C24.1638 110.702 25.6579 103.915 28.6165 98.7904L28.1835 98.5404L28.6165 98.7904L61.6829 41.5149C64.6415 36.392 69.7717 31.7054 75.6729 28.2983C81.5742 24.8912 88.1978 22.7916 94.1135 22.7916H160.249C166.165 22.7916 172.789 24.8912 178.691 28.2983C184.592 31.7054 189.723 36.392 192.68 41.5148L193.113 41.2648L192.68 41.5148L225.746 98.7904L226.179 98.5404L225.746 98.7905C228.705 103.913 230.199 110.699 230.199 117.514C230.199 124.329 228.705 131.115 225.746 136.24L192.68 193.515C189.721 198.638 184.591 203.325 178.69 206.732C172.788 210.139 166.165 212.239 160.249 212.239H94.1135C88.1977 212.239 81.5734 210.139 75.6718 206.732C69.7702 203.325 64.6401 198.638 61.6829 193.515L28.6165 136.24Z" fill="#F8B500" stroke="#F8B500"/>
<path d="M277.498 137.027V133.05L289.803 120.301C291.116 118.917 292.2 117.703 293.052 116.662C293.916 115.608 294.561 114.608 294.987 113.661C295.413 112.714 295.626 111.708 295.626 110.642C295.626 109.435 295.342 108.393 294.774 107.517C294.206 106.63 293.431 105.949 292.448 105.475C291.466 104.99 290.359 104.748 289.128 104.748C287.826 104.748 286.689 105.014 285.719 105.547C284.748 106.079 284.002 106.831 283.482 107.801C282.961 108.772 282.7 109.908 282.7 111.211H277.462C277.462 108.997 277.971 107.062 278.989 105.404C280.007 103.747 281.404 102.463 283.18 101.551C284.955 100.628 286.973 100.167 289.234 100.167C291.519 100.167 293.531 100.622 295.271 101.534C297.023 102.433 298.39 103.664 299.373 105.227C300.355 106.778 300.847 108.529 300.847 110.483C300.847 111.832 300.592 113.152 300.083 114.442C299.586 115.732 298.716 117.171 297.473 118.757C296.23 120.331 294.502 122.243 292.288 124.492L285.062 132.056V132.322H301.433V137.027H277.498ZM320.822 137.631C318.016 137.619 315.619 136.879 313.631 135.412C311.642 133.944 310.121 131.807 309.067 129.002C308.014 126.196 307.487 122.817 307.487 118.863C307.487 114.922 308.014 111.554 309.067 108.76C310.133 105.967 311.66 103.836 313.648 102.368C315.649 100.9 318.04 100.167 320.822 100.167C323.603 100.167 325.989 100.906 327.977 102.386C329.966 103.854 331.487 105.984 332.54 108.778C333.606 111.56 334.138 114.922 334.138 118.863C334.138 122.829 333.612 126.214 332.558 129.02C331.505 131.813 329.984 133.95 327.995 135.429C326.006 136.897 323.615 137.631 320.822 137.631ZM320.822 132.89C323.284 132.89 325.207 131.689 326.592 129.286C327.989 126.883 328.688 123.409 328.688 118.863C328.688 115.845 328.368 113.294 327.729 111.211C327.101 109.115 326.196 107.529 325.012 106.452C323.84 105.363 322.443 104.819 320.822 104.819C318.371 104.819 316.448 106.026 315.051 108.441C313.654 110.855 312.95 114.33 312.938 118.863C312.938 121.894 313.252 124.456 313.879 126.551C314.518 128.635 315.424 130.215 316.596 131.292C317.768 132.358 319.176 132.89 320.822 132.89ZM354.233 100.664V137.027H348.729V106.168H348.516L339.816 111.85V106.594L348.889 100.664H354.233ZM376.357 137.525C373.812 137.525 371.563 137.087 369.61 136.211C367.669 135.335 366.148 134.127 365.047 132.588C363.946 131.05 363.401 129.298 363.413 127.333C363.401 125.794 363.715 124.379 364.354 123.089C365.005 121.787 365.887 120.704 367 119.84C368.113 118.964 369.355 118.408 370.729 118.171V117.958C368.917 117.52 367.467 116.549 366.378 115.046C365.289 113.542 364.751 111.814 364.763 109.861C364.751 108.003 365.242 106.346 366.236 104.89C367.242 103.422 368.622 102.268 370.373 101.427C372.125 100.587 374.12 100.167 376.357 100.167C378.571 100.167 380.547 100.593 382.287 101.445C384.039 102.285 385.418 103.44 386.425 104.907C387.431 106.363 387.94 108.015 387.952 109.861C387.94 111.814 387.383 113.542 386.282 115.046C385.182 116.549 383.749 117.52 381.986 117.958V118.171C383.347 118.408 384.572 118.964 385.661 119.84C386.762 120.704 387.638 121.787 388.289 123.089C388.952 124.379 389.289 125.794 389.301 127.333C389.289 129.298 388.733 131.05 387.632 132.588C386.531 134.127 385.004 135.335 383.051 136.211C381.11 137.087 378.878 137.525 376.357 137.525ZM376.357 133.032C377.86 133.032 379.162 132.784 380.263 132.287C381.364 131.778 382.216 131.073 382.82 130.174C383.424 129.262 383.732 128.197 383.743 126.978C383.732 125.711 383.4 124.592 382.749 123.622C382.11 122.651 381.24 121.888 380.139 121.331C379.038 120.775 377.778 120.497 376.357 120.497C374.925 120.497 373.652 120.775 372.54 121.331C371.427 121.888 370.551 122.651 369.912 123.622C369.273 124.592 368.959 125.711 368.971 126.978C368.959 128.197 369.249 129.262 369.841 130.174C370.444 131.073 371.303 131.778 372.415 132.287C373.528 132.784 374.842 133.032 376.357 133.032ZM376.357 116.111C377.564 116.111 378.636 115.868 379.571 115.383C380.506 114.898 381.24 114.223 381.773 113.359C382.317 112.495 382.595 111.483 382.607 110.323C382.595 109.186 382.323 108.192 381.79 107.34C381.269 106.488 380.541 105.831 379.606 105.369C378.671 104.895 377.588 104.659 376.357 104.659C375.102 104.659 374.001 104.895 373.055 105.369C372.119 105.831 371.391 106.488 370.871 107.34C370.35 108.192 370.095 109.186 370.107 110.323C370.095 111.483 370.356 112.495 370.888 113.359C371.421 114.223 372.155 114.898 373.09 115.383C374.037 115.868 375.126 116.111 376.357 116.111Z" fill="white"/>
<path d="M127.119 151.104C109.946 151.104 95.9746 137.132 95.9746 119.96C95.9746 102.787 109.946 88.8151 127.119 88.8151C144.292 88.8151 158.263 102.787 158.263 119.96C158.263 137.132 144.292 151.104 127.119 151.104ZM127.119 90.4765C110.864 90.4765 97.636 103.701 97.636 119.96C97.636 136.218 110.864 149.442 127.119 149.442C143.374 149.442 156.602 136.218 156.602 119.96C156.602 103.701 143.377 90.4765 127.119 90.4765Z" fill="white"/>
<path d="M127.119 142.719C114.572 142.719 104.36 132.51 104.36 119.959C104.36 107.409 114.569 97.2003 127.119 97.2003C139.669 97.2003 149.875 107.409 149.875 119.959C149.878 132.51 139.669 142.719 127.119 142.719ZM127.119 98.8618C115.486 98.8618 106.021 108.327 106.021 119.959C106.021 131.592 115.486 141.057 127.119 141.057C138.752 141.057 148.217 131.592 148.217 119.959C148.217 108.327 138.752 98.8618 127.119 98.8618Z" fill="white"/>
<path d="M138.613 173.843C136.179 173.843 133.982 172.306 133.151 170.016L131.478 165.423C128.282 165.727 125.301 165.706 122.054 165.345L120.438 169.782C119.605 172.071 117.411 173.608 114.977 173.608C114.299 173.608 113.631 173.49 112.991 173.255L103.043 169.634C101.584 169.104 100.418 168.036 99.7605 166.63C99.1034 165.223 99.0339 163.643 99.5665 162.184L101.237 157.593C98.6518 155.81 96.2437 153.755 94.067 151.471L89.9801 153.83C89.0973 154.34 88.0928 154.609 87.0769 154.609C85.0045 154.609 83.0739 153.495 82.0376 151.703L76.7437 142.533C75.1402 139.758 76.0953 136.194 78.8711 134.594L83.0999 132.151C82.2576 129.103 81.7337 125.983 81.5369 122.854L76.8942 122.035C73.7393 121.479 71.6234 118.457 72.182 115.299L74.02 104.874C74.5671 101.759 77.531 99.5853 80.7554 100.158L85.566 101.007C86.8743 98.141 88.4778 95.4144 90.3476 92.8817L87.3172 89.2694C86.3186 88.0798 85.8439 86.5718 85.9799 85.0262C86.1159 83.4806 86.8454 82.0796 88.035 81.081L96.1453 74.2762C97.1902 73.3991 98.5158 72.9158 99.8791 72.9158C101.604 72.9158 103.228 73.6712 104.334 74.9911L107.471 78.7307C110.305 77.379 113.289 76.3196 116.36 75.5787V70.8636C116.36 67.6594 118.968 65.0515 122.172 65.0515H132.76C135.964 65.0515 138.572 67.6594 138.572 70.8636V75.7494C141.614 76.5367 144.581 77.6424 147.406 79.0462L150.437 75.4339C151.542 74.114 153.166 73.3586 154.891 73.3586C156.255 73.3586 157.577 73.842 158.625 74.719L166.735 81.5268C167.925 82.5254 168.654 83.9263 168.788 85.4719C168.924 87.0205 168.449 88.5256 167.45 89.7152L164.31 93.4607C166.148 96.0338 167.714 98.7864 168.97 101.658L173.601 100.842C176.808 100.271 179.787 102.442 180.334 105.557L182.172 115.982C182.444 117.511 182.099 119.053 181.211 120.327C180.319 121.598 178.988 122.449 177.456 122.718L172.637 123.569C172.391 126.732 171.824 129.847 170.944 132.846L175.014 135.196C177.789 136.799 178.744 140.36 177.141 143.135L171.847 152.305C170.811 154.097 168.88 155.211 166.808 155.211C165.792 155.211 164.79 154.942 163.907 154.432L159.667 151.984C157.459 154.227 155.021 156.242 152.405 157.987L154.02 162.421C155.117 165.434 153.557 168.775 150.547 169.872L140.596 173.493C139.959 173.724 139.29 173.843 138.613 173.843ZM132.595 163.634L134.711 169.449C135.472 171.539 137.924 172.702 140.034 171.929L149.985 168.309C152.136 167.527 153.247 165.139 152.466 162.986L150.399 157.312L150.955 156.954C153.855 155.081 156.538 152.864 158.926 150.366L159.378 149.894L164.744 152.994C166.663 154.103 169.311 153.379 170.417 151.474L175.711 142.305C176.854 140.322 176.174 137.778 174.189 136.634L168.976 133.624L169.173 132.99C170.183 129.72 170.808 126.295 171.031 122.811L171.071 122.159L177.173 121.083C178.267 120.889 179.219 120.284 179.853 119.375C180.49 118.466 180.733 117.363 180.542 116.272L178.704 105.846C178.31 103.62 176.183 102.075 173.896 102.477L167.966 103.525L167.708 102.914C166.374 99.7416 164.651 96.714 162.593 93.9151L162.206 93.3883L166.183 88.6471C166.895 87.7962 167.236 86.7223 167.138 85.6167C167.042 84.511 166.518 83.5095 165.67 82.7974L157.56 75.9926C155.864 74.5714 153.126 74.8174 151.71 76.5049L147.832 81.1302L147.244 80.8263C144.162 79.2402 140.902 78.0245 137.551 77.2082L136.917 77.0548V70.8694C136.917 68.5798 135.055 66.7158 132.763 66.7158H122.175C119.886 66.7158 118.022 68.5798 118.022 70.8694V76.9072L117.373 77.0548C113.99 77.8189 110.707 78.9825 107.622 80.5108L107.037 80.8003L103.063 76.062C101.645 74.3746 98.9066 74.1314 97.2133 75.5497L89.103 82.3546C88.2521 83.0695 87.7311 84.0681 87.6356 85.1738C87.5372 86.2795 87.8787 87.3562 88.5907 88.2043L92.4722 92.8267L92.0728 93.3564C89.9801 96.1062 88.2174 99.1077 86.8251 102.271L86.5617 102.868L80.4718 101.794C78.1852 101.389 76.0548 102.937 75.6611 105.163L73.8232 115.592C73.4267 117.846 74.9347 120.003 77.1894 120.402L83.1346 121.45L83.1665 122.113C83.3315 125.549 83.9075 128.981 84.8829 132.316L85.0653 132.941L79.7105 136.035C77.7278 137.179 77.0447 139.726 78.188 141.708L83.482 150.878C84.5848 152.786 87.2332 153.509 89.1552 152.398L94.3855 149.376L94.8369 149.862C97.193 152.406 99.8386 154.667 102.704 156.583L103.245 156.945L101.132 162.757C100.753 163.799 100.802 164.925 101.271 165.932C101.74 166.937 102.571 167.701 103.616 168.08L113.564 171.701C115.674 172.471 118.126 171.31 118.887 169.22L120.957 163.544L121.614 163.625C125.217 164.077 128.462 164.097 131.958 163.712L132.595 163.634Z" fill="white"/>
</svg>
