<svg width="427" height="235" viewBox="0 0 427 235" fill="none" xmlns="http://www.w3.org/2000/svg">
<path d="M271 136.743C271 160.633 244.25 180 211.253 180H59.7468C26.7501 180 0 160.633 0 136.743V94.2567C0 70.3671 26.7501 51 59.7468 51H211.249C244.246 51 270.996 70.3671 270.996 94.2567L271 136.743Z" fill="black"/>
<path d="M259.253 234.027C244.508 234.027 226.412 223.581 219.04 210.811L178.578 140.73C171.206 127.96 171.206 107.068 178.578 94.2972L219.04 24.2165C226.412 11.4461 244.508 1 259.253 1H340.176C354.921 1 373.017 11.449 380.389 24.2165L420.851 94.2972C428.223 107.068 428.223 127.963 420.851 140.73L380.389 210.811C373.017 223.581 354.921 234.027 340.176 234.027H259.253Z" fill="white"/>
<path d="M259.253 234.027C244.508 234.027 226.412 223.581 219.04 210.811L178.578 140.73C171.206 127.96 171.206 107.068 178.578 94.2972L219.04 24.2165C226.412 11.4461 244.508 1 259.253 1H340.176C354.921 1 373.017 11.449 380.389 24.2165L420.851 94.2972C428.223 107.068 428.223 127.963 420.851 140.73L380.389 210.811C373.017 223.581 354.921 234.027 340.176 234.027H259.253Z" stroke="black" stroke-miterlimit="10" stroke-dasharray="2.03 2.03 2.03 2.03"/>
<path d="M266.645 212.736C254.595 212.736 239.805 204.197 233.781 193.762L200.715 136.487C194.689 126.052 194.689 108.975 200.715 98.5376L233.781 41.262C239.808 30.8274 254.595 22.2888 266.645 22.2888H332.781C344.83 22.2888 359.621 30.8274 365.644 41.262L398.711 98.5376C404.737 108.972 404.737 126.049 398.711 136.487L365.644 193.762C359.618 204.197 344.83 212.736 332.781 212.736H266.645Z" fill="#FEA800"/>
<path d="M50.0426 127.25C53.2426 124.483 55.7592 122.217 57.5926 120.45C59.4592 118.65 61.0092 116.783 62.2426 114.85C63.4759 112.917 64.0926 110.983 64.0926 109.05C64.0926 107.05 63.6092 105.483 62.6426 104.35C61.7092 103.217 60.2259 102.65 58.1926 102.65C56.2259 102.65 54.6926 103.283 53.5926 104.55C52.5259 105.783 51.9592 107.45 51.8926 109.55H46.3926C46.4926 105.75 47.6259 102.85 49.7926 100.85C51.9926 98.8167 54.7759 97.8 58.1426 97.8C61.7759 97.8 64.6092 98.8 66.6426 100.8C68.7092 102.8 69.7426 105.467 69.7426 108.8C69.7426 111.2 69.1259 113.517 67.8926 115.75C66.6926 117.95 65.2426 119.933 63.5426 121.7C61.8759 123.433 59.7426 125.45 57.1426 127.75L54.8926 129.75H70.7426V134.5H46.4426V130.35L50.0426 127.25ZM75.75 116.3C75.75 110.533 76.7167 106.033 78.65 102.8C80.6167 99.5333 83.9833 97.9 88.75 97.9C93.5167 97.9 96.8667 99.5333 98.8 102.8C100.767 106.033 101.75 110.533 101.75 116.3C101.75 122.133 100.767 126.7 98.8 130C96.8667 133.267 93.5167 134.9 88.75 134.9C83.9833 134.9 80.6167 133.267 78.65 130C76.7167 126.7 75.75 122.133 75.75 116.3ZM96.15 116.3C96.15 113.6 95.9667 111.317 95.6 109.45C95.2667 107.583 94.5667 106.067 93.5 104.9C92.4333 103.7 90.85 103.1 88.75 103.1C86.65 103.1 85.0667 103.7 84 104.9C82.9333 106.067 82.2167 107.583 81.85 109.45C81.5167 111.317 81.35 113.6 81.35 116.3C81.35 119.1 81.5167 121.45 81.85 123.35C82.1833 125.25 82.8833 126.783 83.95 127.95C85.05 129.117 86.65 129.7 88.75 129.7C90.85 129.7 92.4333 129.117 93.5 127.95C94.6 126.783 95.3167 125.25 95.65 123.35C95.9833 121.45 96.15 119.1 96.15 116.3ZM107.031 103.75V98.55H117.431V135H111.681V103.75H107.031ZM132.362 125.1C132.695 126.767 133.412 128.033 134.512 128.9C135.612 129.767 137.095 130.2 138.962 130.2C141.328 130.2 143.062 129.267 144.162 127.4C145.262 125.533 145.812 122.35 145.812 117.85C145.012 118.983 143.878 119.867 142.412 120.5C140.978 121.1 139.412 121.4 137.712 121.4C135.545 121.4 133.578 120.967 131.812 120.1C130.045 119.2 128.645 117.883 127.612 116.15C126.612 114.383 126.112 112.25 126.112 109.75C126.112 106.083 127.178 103.167 129.312 101C131.478 98.8 134.445 97.7 138.212 97.7C142.745 97.7 145.962 99.2167 147.862 102.25C149.795 105.25 150.762 109.867 150.762 116.1C150.762 120.4 150.395 123.917 149.662 126.65C148.962 129.383 147.728 131.45 145.962 132.85C144.195 134.25 141.745 134.95 138.612 134.95C135.045 134.95 132.295 134.017 130.362 132.15C128.428 130.283 127.345 127.933 127.112 125.1H132.362ZM138.712 116.6C140.712 116.6 142.278 115.983 143.412 114.75C144.578 113.483 145.162 111.817 145.162 109.75C145.162 107.45 144.545 105.667 143.312 104.4C142.112 103.1 140.462 102.45 138.362 102.45C136.262 102.45 134.595 103.117 133.362 104.45C132.162 105.75 131.562 107.467 131.562 109.6C131.562 111.633 132.145 113.317 133.312 114.65C134.512 115.95 136.312 116.6 138.712 116.6Z" fill="white"/>
<path d="M346.278 65.7172L335.58 63.5869L338.495 68.5161L293.086 93.7674L287.268 85.6658L253.151 105.814L254.798 108.607L286.362 89.967L292.137 98.0049L340.147 71.3064L342.993 76.117L346.278 65.7172Z" fill="white"/>
<path d="M253.974 171.44H269.479V121.12H253.974V171.44ZM257.184 168.3V150.916H266.275V168.3H257.184ZM266.272 124.261V147.674H257.181V124.261H266.272Z" fill="white"/>
<path d="M277.639 171.44H293.145V111.8H277.639V171.44ZM280.846 114.94H289.935V134.704H280.846V114.94ZM280.846 137.946H289.935V168.3H280.846V137.946Z" fill="white"/>
<path d="M301.145 171.44H316.653V105.313H301.145V171.44ZM304.355 108.454H313.443V118.692H304.355V108.454ZM304.355 121.936H313.443V168.3H304.355V121.936Z" fill="white"/>
<path d="M323.895 92.1697V171.44H339.401V92.1697H323.895ZM336.194 168.3H327.105V106.934H336.194V168.3ZM336.194 103.693H327.105V95.3102H336.194V103.693Z" fill="white"/>
</svg>
