<svg width="427" height="235" viewBox="0 0 427 235" fill="none" xmlns="http://www.w3.org/2000/svg">
<path d="M271 136.743C271 160.633 244.25 180 211.253 180H59.7468C26.7501 180 0 160.633 0 136.743V94.2567C0 70.3671 26.7501 51 59.7468 51H211.249C244.246 51 270.996 70.3671 270.996 94.2567L271 136.743Z" fill="black"/>
<path d="M259.253 234.027C244.508 234.027 226.412 223.581 219.04 210.811L178.578 140.73C171.206 127.96 171.206 107.068 178.578 94.2972L219.04 24.2165C226.412 11.4461 244.508 1 259.253 1H340.176C354.921 1 373.017 11.449 380.389 24.2165L420.851 94.2972C428.223 107.068 428.223 127.963 420.851 140.73L380.389 210.811C373.017 223.581 354.921 234.027 340.176 234.027H259.253Z" fill="white"/>
<path d="M259.253 234.027C244.508 234.027 226.412 223.581 219.04 210.811L178.578 140.73C171.206 127.96 171.206 107.068 178.578 94.2972L219.04 24.2165C226.412 11.4461 244.508 1 259.253 1H340.176C354.921 1 373.017 11.449 380.389 24.2165L420.851 94.2972C428.223 107.068 428.223 127.963 420.851 140.73L380.389 210.811C373.017 223.581 354.921 234.027 340.176 234.027H259.253Z" stroke="black" stroke-miterlimit="10" stroke-dasharray="2.03 2.03 2.03 2.03"/>
<path d="M266.645 212.736C254.595 212.736 239.805 204.197 233.781 193.763L200.715 136.487C194.689 126.052 194.689 108.975 200.715 98.5376L233.781 41.262C239.808 30.8275 254.595 22.2888 266.645 22.2888H332.781C344.83 22.2888 359.621 30.8275 365.644 41.262L398.711 98.5376C404.737 108.972 404.737 126.049 398.711 136.487L365.644 193.763C359.618 204.197 344.83 212.736 332.781 212.736H266.645Z" fill="#FEA800"/>
<path d="M51.9234 127.25C55.1234 124.483 57.6401 122.217 59.4734 120.45C61.3401 118.65 62.8901 116.783 64.1234 114.85C65.3568 112.917 65.9734 110.983 65.9734 109.05C65.9734 107.05 65.4901 105.483 64.5234 104.35C63.5901 103.217 62.1068 102.65 60.0734 102.65C58.1068 102.65 56.5734 103.283 55.4734 104.55C54.4068 105.783 53.8401 107.45 53.7734 109.55H48.2734C48.3734 105.75 49.5068 102.85 51.6734 100.85C53.8734 98.8167 56.6568 97.8 60.0234 97.8C63.6568 97.8 66.4901 98.8 68.5234 100.8C70.5901 102.8 71.6234 105.467 71.6234 108.8C71.6234 111.2 71.0068 113.517 69.7734 115.75C68.5734 117.95 67.1234 119.933 65.4234 121.7C63.7568 123.433 61.6234 125.45 59.0234 127.75L56.7734 129.75H72.6234V134.5H48.3234V130.35L51.9234 127.25ZM77.6309 116.3C77.6309 110.533 78.5975 106.033 80.5309 102.8C82.4975 99.5333 85.8642 97.9 90.6309 97.9C95.3975 97.9 98.7475 99.5333 100.681 102.8C102.648 106.033 103.631 110.533 103.631 116.3C103.631 122.133 102.648 126.7 100.681 130C98.7475 133.267 95.3975 134.9 90.6309 134.9C85.8642 134.9 82.4975 133.267 80.5309 130C78.5975 126.7 77.6309 122.133 77.6309 116.3ZM98.0309 116.3C98.0309 113.6 97.8475 111.317 97.4809 109.45C97.1475 107.583 96.4475 106.067 95.3809 104.9C94.3142 103.7 92.7309 103.1 90.6309 103.1C88.5309 103.1 86.9475 103.7 85.8809 104.9C84.8142 106.067 84.0975 107.583 83.7309 109.45C83.3975 111.317 83.2309 113.6 83.2309 116.3C83.2309 119.1 83.3975 121.45 83.7309 123.35C84.0642 125.25 84.7642 126.783 85.8309 127.95C86.9309 129.117 88.5309 129.7 90.6309 129.7C92.7309 129.7 94.3142 129.117 95.3809 127.95C96.4809 126.783 97.1975 125.25 97.5309 123.35C97.8642 121.45 98.0309 119.1 98.0309 116.3ZM112.812 127.25C116.012 124.483 118.529 122.217 120.362 120.45C122.229 118.65 123.779 116.783 125.012 114.85C126.245 112.917 126.862 110.983 126.862 109.05C126.862 107.05 126.379 105.483 125.412 104.35C124.479 103.217 122.995 102.65 120.962 102.65C118.995 102.65 117.462 103.283 116.362 104.55C115.295 105.783 114.729 107.45 114.662 109.55H109.162C109.262 105.75 110.395 102.85 112.562 100.85C114.762 98.8167 117.545 97.8 120.912 97.8C124.545 97.8 127.379 98.8 129.412 100.8C131.479 102.8 132.512 105.467 132.512 108.8C132.512 111.2 131.895 113.517 130.662 115.75C129.462 117.95 128.012 119.933 126.312 121.7C124.645 123.433 122.512 125.45 119.912 127.75L117.662 129.75H133.512V134.5H109.212V130.35L112.812 127.25ZM137.77 103.75V98.55H148.17V135H142.42V103.75H137.77Z" fill="white"/>
<path d="M346.278 65.7172L335.58 63.5869L338.495 68.5162L293.086 93.7675L287.268 85.6659L253.151 105.814L254.798 108.607L286.362 89.9671L292.137 98.005L340.147 71.3064L342.993 76.117L346.278 65.7172Z" fill="white"/>
<path d="M253.974 171.44H269.479V121.12H253.974V171.44ZM257.184 168.3V150.916H266.275V168.3H257.184ZM266.272 124.261V147.674H257.181V124.261H266.272Z" fill="white"/>
<path d="M277.639 171.44H293.145V111.8H277.639V171.44ZM280.846 114.941H289.935V134.704H280.846V114.941ZM280.846 137.946H289.935V168.3H280.846V137.946Z" fill="white"/>
<path d="M301.145 171.44H316.653V105.313H301.145V171.44ZM304.355 108.454H313.443V118.692H304.355V108.454ZM304.355 121.936H313.443V168.3H304.355V121.936Z" fill="white"/>
<path d="M323.895 92.1698V171.44H339.401V92.1698H323.895ZM336.194 168.3H327.105V106.934H336.194V168.3ZM336.194 103.693H327.105V95.3103H336.194V103.693Z" fill="white"/>
</svg>
