<svg width="438" height="235" viewBox="0 0 438 235" fill="none" xmlns="http://www.w3.org/2000/svg">
<path d="M156 98.285C156 74.3949 183.836 55.0273 218.173 55.0273H375.827C410.164 55.0273 438 74.3949 438 98.285V140.77C438 164.66 410.164 184.027 375.827 184.027H218.173C183.836 184.027 156 164.66 156 140.77V98.285Z" fill="black"/>
<path d="M167.642 1C182.386 1 200.482 11.4461 207.854 24.2165L248.316 94.2971C255.688 107.065 255.688 127.96 248.316 140.73L207.854 210.811C200.482 223.581 182.386 234.027 167.642 234.027H86.7183C71.9739 234.027 53.8777 223.581 46.5055 210.811L6.04379 140.73C-1.3284 127.96 -1.3284 107.065 6.04379 94.2971L46.5055 24.2165C53.8777 11.4461 71.9739 1 86.7183 1H167.642Z" fill="white"/>
<path d="M167.642 1C182.386 1 200.482 11.4461 207.854 24.2165L248.316 94.2971C255.688 107.068 255.688 127.963 248.316 140.73L207.854 210.811C200.482 223.578 182.386 234.027 167.642 234.027H86.7183C71.9739 234.027 53.8777 223.578 46.5055 210.811L6.04379 140.73C-1.3284 127.96 -1.3284 107.065 6.04379 94.2971L46.5055 24.2165C53.8777 11.4461 71.9739 1 86.7183 1H167.642Z" stroke="black" stroke-miterlimit="10" stroke-dasharray="2.03 2.03 2.03 2.03"/>
<path d="M28.6165 136.24L28.6165 136.24C25.6579 131.117 24.1638 124.331 24.1638 117.516C24.1638 110.702 25.6579 103.915 28.6165 98.7904L28.1835 98.5404L28.6165 98.7904L61.6829 41.5149C64.6415 36.392 69.7717 31.7054 75.6729 28.2983C81.5742 24.8912 88.1978 22.7916 94.1135 22.7916H160.249C166.165 22.7916 172.789 24.8912 178.691 28.2983C184.592 31.7054 189.723 36.392 192.68 41.5148L193.113 41.2648L192.68 41.5148L225.746 98.7904L226.179 98.5404L225.746 98.7905C228.705 103.913 230.199 110.699 230.199 117.514C230.199 124.329 228.705 131.115 225.746 136.24L192.68 193.515C189.721 198.638 184.591 203.325 178.69 206.732C172.788 210.139 166.165 212.239 160.249 212.239H94.1135C88.1977 212.239 81.5734 210.139 75.6718 206.732C69.7702 203.325 64.6401 198.638 61.6829 193.515L28.6165 136.24Z" fill="#F8B500" stroke="#F8B500"/>
<path d="M277.498 137V133.023L289.803 120.274C291.116 118.889 292.2 117.676 293.052 116.634C293.916 115.581 294.561 114.58 294.987 113.634C295.413 112.687 295.626 111.68 295.626 110.615C295.626 109.408 295.342 108.366 294.774 107.49C294.206 106.602 293.431 105.922 292.448 105.448C291.466 104.963 290.359 104.72 289.128 104.72C287.826 104.72 286.689 104.987 285.719 105.519C284.748 106.052 284.002 106.804 283.482 107.774C282.961 108.745 282.7 109.881 282.7 111.183H277.462C277.462 108.97 277.971 107.034 278.989 105.377C280.007 103.72 281.404 102.436 283.18 101.524C284.955 100.601 286.973 100.139 289.234 100.139C291.519 100.139 293.531 100.595 295.271 101.506C297.023 102.406 298.39 103.637 299.373 105.2C300.355 106.75 300.847 108.502 300.847 110.455C300.847 111.805 300.592 113.125 300.083 114.415C299.586 115.705 298.716 117.143 297.473 118.729C296.23 120.304 294.502 122.215 292.288 124.464L285.062 132.028V132.295H301.433V137H277.498ZM320.822 137.604C318.016 137.592 315.619 136.852 313.631 135.384C311.642 133.916 310.121 131.78 309.067 128.974C308.014 126.169 307.487 122.79 307.487 118.836C307.487 114.894 308.014 111.527 309.067 108.733C310.133 105.939 311.66 103.809 313.648 102.341C315.649 100.873 318.04 100.139 320.822 100.139C323.603 100.139 325.989 100.879 327.977 102.359C329.966 103.826 331.487 105.957 332.54 108.751C333.606 111.532 334.138 114.894 334.138 118.836C334.138 122.801 333.612 126.187 332.558 128.992C331.505 131.786 329.984 133.922 327.995 135.402C326.006 136.87 323.615 137.604 320.822 137.604ZM320.822 132.863C323.284 132.863 325.207 131.661 326.592 129.259C327.989 126.856 328.688 123.381 328.688 118.836C328.688 115.817 328.368 113.267 327.729 111.183C327.101 109.088 326.196 107.502 325.012 106.425C323.84 105.336 322.443 104.791 320.822 104.791C318.371 104.791 316.448 105.999 315.051 108.413C313.654 110.828 312.95 114.302 312.938 118.836C312.938 121.866 313.252 124.429 313.879 126.524C314.518 128.607 315.424 130.188 316.596 131.265C317.768 132.33 319.176 132.863 320.822 132.863ZM340.437 137V133.023L352.742 120.274C354.056 118.889 355.139 117.676 355.991 116.634C356.855 115.581 357.501 114.58 357.927 113.634C358.353 112.687 358.566 111.68 358.566 110.615C358.566 109.408 358.282 108.366 357.714 107.49C357.145 106.602 356.37 105.922 355.388 105.448C354.405 104.963 353.298 104.72 352.067 104.72C350.765 104.72 349.629 104.987 348.658 105.519C347.688 106.052 346.942 106.804 346.421 107.774C345.9 108.745 345.64 109.881 345.64 111.183H340.402C340.402 108.97 340.911 107.034 341.929 105.377C342.947 103.72 344.344 102.436 346.119 101.524C347.895 100.601 349.913 100.139 352.174 100.139C354.458 100.139 356.471 100.595 358.211 101.506C359.963 102.406 361.33 103.637 362.312 105.2C363.295 106.75 363.786 108.502 363.786 110.455C363.786 111.805 363.532 113.125 363.023 114.415C362.525 115.705 361.655 117.143 360.412 118.729C359.17 120.304 357.441 122.215 355.228 124.464L348.001 132.028V132.295H364.372V137H340.437ZM371.101 137V133.023L383.406 120.274C384.72 118.889 385.803 117.676 386.655 116.634C387.519 115.581 388.165 114.58 388.591 113.634C389.017 112.687 389.23 111.68 389.23 110.615C389.23 109.408 388.946 108.366 388.378 107.49C387.809 106.602 387.034 105.922 386.052 105.448C385.069 104.963 383.962 104.72 382.731 104.72C381.429 104.72 380.293 104.987 379.322 105.519C378.352 106.052 377.606 106.804 377.085 107.774C376.564 108.745 376.304 109.881 376.304 111.183H371.066C371.066 108.97 371.575 107.034 372.593 105.377C373.611 103.72 375.008 102.436 376.783 101.524C378.559 100.601 380.577 100.139 382.838 100.139C385.122 100.139 387.135 100.595 388.875 101.506C390.627 102.406 391.994 103.637 392.976 105.2C393.959 106.75 394.45 108.502 394.45 110.455C394.45 111.805 394.196 113.125 393.687 114.415C393.189 115.705 392.319 117.143 391.077 118.729C389.834 120.304 388.105 122.215 385.892 124.464L378.665 132.028V132.295H395.036V137H371.101Z" fill="white"/>
<path d="M127.119 151.104C109.946 151.104 95.9746 137.132 95.9746 119.96C95.9746 102.787 109.946 88.8151 127.119 88.8151C144.292 88.8151 158.263 102.787 158.263 119.96C158.263 137.132 144.292 151.104 127.119 151.104ZM127.119 90.4765C110.864 90.4765 97.636 103.701 97.636 119.96C97.636 136.218 110.864 149.442 127.119 149.442C143.374 149.442 156.602 136.218 156.602 119.96C156.602 103.701 143.377 90.4765 127.119 90.4765Z" fill="white"/>
<path d="M127.119 142.719C114.572 142.719 104.36 132.51 104.36 119.959C104.36 107.409 114.569 97.2003 127.119 97.2003C139.669 97.2003 149.875 107.409 149.875 119.959C149.878 132.51 139.669 142.719 127.119 142.719ZM127.119 98.8618C115.486 98.8618 106.021 108.327 106.021 119.959C106.021 131.592 115.486 141.057 127.119 141.057C138.752 141.057 148.217 131.592 148.217 119.959C148.217 108.327 138.752 98.8618 127.119 98.8618Z" fill="white"/>
<path d="M138.613 173.843C136.179 173.843 133.982 172.306 133.151 170.016L131.478 165.423C128.282 165.727 125.301 165.706 122.054 165.345L120.438 169.782C119.605 172.071 117.411 173.608 114.977 173.608C114.299 173.608 113.631 173.49 112.991 173.255L103.043 169.634C101.584 169.104 100.418 168.036 99.7605 166.63C99.1034 165.223 99.0339 163.643 99.5665 162.184L101.237 157.593C98.6518 155.81 96.2437 153.755 94.067 151.471L89.9801 153.83C89.0973 154.34 88.0928 154.609 87.0769 154.609C85.0045 154.609 83.0739 153.495 82.0376 151.703L76.7437 142.533C75.1402 139.758 76.0953 136.194 78.8711 134.594L83.0999 132.151C82.2576 129.103 81.7337 125.983 81.5369 122.854L76.8942 122.035C73.7393 121.479 71.6234 118.457 72.182 115.299L74.02 104.874C74.5671 101.759 77.531 99.5853 80.7554 100.158L85.566 101.007C86.8743 98.141 88.4778 95.4144 90.3476 92.8817L87.3172 89.2694C86.3186 88.0798 85.8439 86.5718 85.9799 85.0262C86.1159 83.4806 86.8454 82.0796 88.035 81.081L96.1453 74.2762C97.1902 73.3991 98.5158 72.9158 99.8791 72.9158C101.604 72.9158 103.228 73.6712 104.334 74.9911L107.471 78.7307C110.305 77.379 113.289 76.3196 116.36 75.5787V70.8636C116.36 67.6594 118.968 65.0515 122.172 65.0515H132.76C135.964 65.0515 138.572 67.6594 138.572 70.8636V75.7494C141.614 76.5367 144.581 77.6424 147.406 79.0462L150.437 75.4339C151.542 74.114 153.166 73.3586 154.891 73.3586C156.255 73.3586 157.577 73.842 158.625 74.719L166.735 81.5268C167.925 82.5254 168.654 83.9263 168.788 85.4719C168.924 87.0205 168.449 88.5256 167.45 89.7152L164.31 93.4607C166.148 96.0338 167.714 98.7864 168.97 101.658L173.601 100.842C176.808 100.271 179.787 102.442 180.334 105.557L182.172 115.982C182.444 117.511 182.099 119.053 181.211 120.327C180.319 121.598 178.988 122.449 177.456 122.718L172.637 123.569C172.391 126.732 171.824 129.847 170.944 132.846L175.014 135.196C177.789 136.799 178.744 140.36 177.141 143.135L171.847 152.305C170.811 154.097 168.88 155.211 166.808 155.211C165.792 155.211 164.79 154.942 163.907 154.432L159.667 151.984C157.459 154.227 155.021 156.242 152.405 157.987L154.02 162.421C155.117 165.434 153.557 168.775 150.547 169.872L140.596 173.493C139.959 173.724 139.29 173.843 138.613 173.843ZM132.595 163.634L134.711 169.449C135.472 171.539 137.924 172.702 140.034 171.929L149.985 168.309C152.136 167.527 153.247 165.139 152.466 162.986L150.399 157.312L150.955 156.954C153.855 155.081 156.538 152.864 158.926 150.366L159.378 149.894L164.744 152.994C166.663 154.103 169.311 153.379 170.417 151.474L175.711 142.305C176.854 140.322 176.174 137.778 174.189 136.634L168.976 133.624L169.173 132.99C170.183 129.72 170.808 126.295 171.031 122.811L171.071 122.159L177.173 121.083C178.267 120.889 179.219 120.284 179.853 119.375C180.49 118.466 180.733 117.363 180.542 116.272L178.704 105.846C178.31 103.62 176.183 102.075 173.896 102.477L167.966 103.525L167.708 102.914C166.374 99.7416 164.651 96.714 162.593 93.9151L162.206 93.3883L166.183 88.6471C166.895 87.7962 167.236 86.7223 167.138 85.6167C167.042 84.511 166.518 83.5095 165.67 82.7974L157.56 75.9926C155.864 74.5714 153.126 74.8174 151.71 76.5049L147.832 81.1302L147.244 80.8263C144.162 79.2402 140.902 78.0245 137.551 77.2082L136.917 77.0548V70.8694C136.917 68.5798 135.055 66.7158 132.763 66.7158H122.175C119.886 66.7158 118.022 68.5798 118.022 70.8694V76.9072L117.373 77.0548C113.99 77.8189 110.707 78.9825 107.622 80.5108L107.037 80.8003L103.063 76.062C101.645 74.3746 98.9066 74.1314 97.2133 75.5497L89.103 82.3546C88.2521 83.0695 87.7311 84.0681 87.6356 85.1738C87.5372 86.2795 87.8787 87.3562 88.5907 88.2043L92.4722 92.8267L92.0728 93.3564C89.9801 96.1062 88.2174 99.1077 86.8251 102.271L86.5617 102.868L80.4718 101.794C78.1852 101.389 76.0548 102.937 75.6611 105.163L73.8232 115.592C73.4267 117.846 74.9347 120.003 77.1894 120.402L83.1346 121.45L83.1665 122.113C83.3315 125.549 83.9075 128.981 84.8829 132.316L85.0653 132.941L79.7105 136.035C77.7278 137.179 77.0447 139.726 78.188 141.708L83.482 150.878C84.5848 152.786 87.2332 153.509 89.1552 152.398L94.3855 149.376L94.8369 149.862C97.193 152.406 99.8386 154.667 102.704 156.583L103.245 156.945L101.132 162.757C100.753 163.799 100.802 164.925 101.271 165.932C101.74 166.937 102.571 167.701 103.616 168.08L113.564 171.701C115.674 172.471 118.126 171.31 118.887 169.22L120.957 163.544L121.614 163.625C125.217 164.077 128.462 164.097 131.958 163.712L132.595 163.634Z" fill="white"/>
</svg>
