<svg width="427" height="235" viewBox="0 0 427 235" fill="none" xmlns="http://www.w3.org/2000/svg">
<path d="M271 136.743C271 160.633 244.25 180 211.253 180H59.7468C26.7501 180 0 160.633 0 136.743V94.2567C0 70.3671 26.7501 51 59.7468 51H211.249C244.246 51 270.996 70.3671 270.996 94.2567L271 136.743Z" fill="black"/>
<path d="M259.253 234.027C244.508 234.027 226.412 223.581 219.04 210.811L178.578 140.73C171.206 127.96 171.206 107.068 178.578 94.2972L219.04 24.2165C226.412 11.4461 244.508 1 259.253 1H340.176C354.921 1 373.017 11.449 380.389 24.2165L420.851 94.2972C428.223 107.068 428.223 127.963 420.851 140.73L380.389 210.811C373.017 223.581 354.921 234.027 340.176 234.027H259.253Z" fill="white"/>
<path d="M259.253 234.027C244.508 234.027 226.412 223.581 219.04 210.811L178.578 140.73C171.206 127.96 171.206 107.068 178.578 94.2972L219.04 24.2165C226.412 11.4461 244.508 1 259.253 1H340.176C354.921 1 373.017 11.449 380.389 24.2165L420.851 94.2972C428.223 107.068 428.223 127.963 420.851 140.73L380.389 210.811C373.017 223.581 354.921 234.027 340.176 234.027H259.253Z" stroke="black" stroke-miterlimit="10" stroke-dasharray="2.03 2.03 2.03 2.03"/>
<path d="M266.645 212.736C254.595 212.736 239.805 204.197 233.781 193.763L200.715 136.487C194.689 126.052 194.689 108.975 200.715 98.5376L233.781 41.262C239.808 30.8275 254.595 22.2888 266.645 22.2888H332.781C344.83 22.2888 359.621 30.8275 365.644 41.262L398.711 98.5376C404.737 108.972 404.737 126.049 398.711 136.487L365.644 193.763C359.618 204.197 344.83 212.736 332.781 212.736H266.645Z" fill="#FEA800"/>
<path d="M39.7164 127.25C42.9164 124.483 45.4331 122.217 47.2664 120.45C49.1331 118.65 50.6831 116.783 51.9164 114.85C53.1497 112.917 53.7664 110.983 53.7664 109.05C53.7664 107.05 53.2831 105.483 52.3164 104.35C51.3831 103.217 49.8997 102.65 47.8664 102.65C45.8997 102.65 44.3664 103.283 43.2664 104.55C42.1997 105.783 41.6331 107.45 41.5664 109.55H36.0664C36.1664 105.75 37.2997 102.85 39.4664 100.85C41.6664 98.8167 44.4497 97.8 47.8164 97.8C51.4497 97.8 54.2831 98.8 56.3164 100.8C58.3831 102.8 59.4164 105.467 59.4164 108.8C59.4164 111.2 58.7997 113.517 57.5664 115.75C56.3664 117.95 54.9164 119.933 53.2164 121.7C51.5497 123.433 49.4164 125.45 46.8164 127.75L44.5664 129.75H60.4164V134.5H36.1164V130.35L39.7164 127.25ZM65.4238 116.3C65.4238 110.533 66.3905 106.033 68.3238 102.8C70.2905 99.5333 73.6572 97.9 78.4238 97.9C83.1905 97.9 86.5405 99.5333 88.4738 102.8C90.4405 106.033 91.4238 110.533 91.4238 116.3C91.4238 122.133 90.4405 126.7 88.4738 130C86.5405 133.267 83.1905 134.9 78.4238 134.9C73.6572 134.9 70.2905 133.267 68.3238 130C66.3905 126.7 65.4238 122.133 65.4238 116.3ZM85.8238 116.3C85.8238 113.6 85.6405 111.317 85.2738 109.45C84.9405 107.583 84.2405 106.067 83.1738 104.9C82.1072 103.7 80.5238 103.1 78.4238 103.1C76.3238 103.1 74.7405 103.7 73.6738 104.9C72.6072 106.067 71.8905 107.583 71.5238 109.45C71.1905 111.317 71.0238 113.6 71.0238 116.3C71.0238 119.1 71.1905 121.45 71.5238 123.35C71.8572 125.25 72.5572 126.783 73.6238 127.95C74.7238 129.117 76.3238 129.7 78.4238 129.7C80.5238 129.7 82.1072 129.117 83.1738 127.95C84.2738 126.783 84.9905 125.25 85.3238 123.35C85.6572 121.45 85.8238 119.1 85.8238 116.3ZM100.605 127.25C103.805 124.483 106.322 122.217 108.155 120.45C110.022 118.65 111.572 116.783 112.805 114.85C114.038 112.917 114.655 110.983 114.655 109.05C114.655 107.05 114.172 105.483 113.205 104.35C112.272 103.217 110.788 102.65 108.755 102.65C106.788 102.65 105.255 103.283 104.155 104.55C103.088 105.783 102.522 107.45 102.455 109.55H96.9551C97.0551 105.75 98.1884 102.85 100.355 100.85C102.555 98.8167 105.338 97.8 108.705 97.8C112.338 97.8 115.172 98.8 117.205 100.8C119.272 102.8 120.305 105.467 120.305 108.8C120.305 111.2 119.688 113.517 118.455 115.75C117.255 117.95 115.805 119.933 114.105 121.7C112.438 123.433 110.305 125.45 107.705 127.75L105.455 129.75H121.305V134.5H97.0051V130.35L100.605 127.25ZM126.213 107.55C126.413 104.45 127.596 102.033 129.763 100.3C131.963 98.5667 134.763 97.7 138.163 97.7C140.496 97.7 142.513 98.1167 144.213 98.95C145.913 99.7833 147.196 100.917 148.063 102.35C148.929 103.783 149.363 105.4 149.363 107.2C149.363 109.267 148.813 111.033 147.713 112.5C146.613 113.967 145.296 114.95 143.763 115.45V115.65C145.729 116.25 147.263 117.35 148.363 118.95C149.463 120.517 150.013 122.533 150.013 125C150.013 126.967 149.563 128.717 148.663 130.25C147.763 131.783 146.429 133 144.663 133.9C142.896 134.767 140.779 135.2 138.313 135.2C134.713 135.2 131.746 134.283 129.413 132.45C127.113 130.583 125.879 127.917 125.713 124.45H131.213C131.346 126.217 132.029 127.667 133.263 128.8C134.496 129.9 136.163 130.45 138.263 130.45C140.296 130.45 141.863 129.9 142.963 128.8C144.063 127.667 144.613 126.217 144.613 124.45C144.613 122.117 143.863 120.467 142.363 119.5C140.896 118.5 138.629 118 135.563 118H134.263V113.3H135.613C138.313 113.267 140.363 112.817 141.763 111.95C143.196 111.083 143.913 109.717 143.913 107.85C143.913 106.25 143.396 104.983 142.363 104.05C141.329 103.083 139.863 102.6 137.963 102.6C136.096 102.6 134.646 103.083 133.613 104.05C132.579 104.983 131.963 106.15 131.763 107.55H126.213Z" fill="white"/>
<path d="M346.278 65.7172L335.58 63.5869L338.495 68.5162L293.086 93.7675L287.268 85.6659L253.151 105.814L254.798 108.607L286.362 89.9671L292.137 98.005L340.147 71.3064L342.993 76.117L346.278 65.7172Z" fill="white"/>
<path d="M253.974 171.44H269.479V121.12H253.974V171.44ZM257.184 168.3V150.916H266.275V168.3H257.184ZM266.272 124.261V147.674H257.181V124.261H266.272Z" fill="white"/>
<path d="M277.639 171.44H293.145V111.8H277.639V171.44ZM280.846 114.941H289.935V134.704H280.846V114.941ZM280.846 137.946H289.935V168.3H280.846V137.946Z" fill="white"/>
<path d="M301.145 171.44H316.653V105.313H301.145V171.44ZM304.355 108.454H313.443V118.692H304.355V108.454ZM304.355 121.936H313.443V168.3H304.355V121.936Z" fill="white"/>
<path d="M323.895 92.1698V171.44H339.401V92.1698H323.895ZM336.194 168.3H327.105V106.934H336.194V168.3ZM336.194 103.693H327.105V95.3103H336.194V103.693Z" fill="white"/>
</svg>
