<svg width="665" height="5" viewBox="0 0 665 5" fill="none" xmlns="http://www.w3.org/2000/svg">
<path d="M665 4.91299H658.838V0.0871582H665V4.91299ZM649.154 4.91299H639.465V0.0871582H649.154V4.91299ZM629.776 4.91299H620.087V0.0871582H629.776V4.91299ZM610.398 4.91299H600.71V0.0871582H610.398V4.91299ZM591.021 4.91299H581.332V0.0871582H591.021V4.91299ZM571.643 4.91299H561.954V0.0871582H571.643V4.91299ZM552.265 4.91299H542.576V0.0871582H552.265V4.91299ZM532.888 4.91299H523.199V0.0871582H532.888V4.91299ZM513.51 4.91299H503.821V0.0871582H513.51V4.91299ZM494.132 4.91299H484.443V0.0871582H494.132V4.91299ZM474.754 4.91299H465.065V0.0871582H474.754V4.91299ZM455.377 4.91299H445.688V0.0871582H455.377V4.91299ZM435.999 4.91299H426.31V0.0871582H435.999V4.91299ZM416.621 4.91299H406.937V0.0871582H416.621V4.91299ZM397.248 4.91299H387.559V0.0871582H397.248V4.91299ZM377.871 4.91299H368.182V0.0871582H377.871V4.91299ZM358.493 4.91299H348.804V0.0871582H358.493V4.91299ZM339.115 4.91299H329.426V0.0871582H339.115V4.91299ZM319.737 4.91299H310.049V0.0871582H319.737V4.91299ZM300.36 4.91299H290.671V0.0871582H300.36V4.91299ZM280.982 4.91299H271.293V0.0871582H280.982V4.91299ZM261.604 4.91299H251.915V0.0871582H261.604V4.91299ZM242.226 4.91299H232.538V0.0871582H242.226V4.91299ZM222.849 4.91299H213.16V0.0871582H222.849V4.91299ZM203.471 4.91299H193.777V0.0871582H203.471V4.91299ZM184.088 4.91299H174.4V0.0871582H184.088V4.91299ZM164.711 4.91299H155.022V0.0871582H164.711V4.91299ZM145.333 4.91299H135.644V0.0871582H145.333V4.91299ZM125.955 4.91299H116.271V0.0871582H125.955V4.91299ZM106.582 4.91299H96.8935V0.0871582H106.582V4.91299ZM87.2046 4.91299H77.5157V0.0871582H87.2046V4.91299ZM67.822 4.91299H58.1332V0.0871582H67.822V4.91299ZM48.4443 4.91299H38.7555V0.0871582H48.4443V4.91299ZM29.0666 4.91299H19.3777V0.0871582H29.0666V4.91299ZM9.68886 4.91299H0V0.0871582H9.68886V4.91299Z" fill="#F8B500"/>
</svg>
