<svg width="11" height="6" viewBox="0 0 11 6" fill="none" xmlns="http://www.w3.org/2000/svg">
<path d="M5.49761 6C5.37354 6 5.25806 5.98082 5.15115 5.94245C5.04424 5.90409 4.94257 5.83832 4.84613 5.74515L0.218893 1.26676C0.076466 1.12875 0.00353661 0.955284 0.00010464 0.746357C-0.00315573 0.537597 0.0697737 0.360972 0.218893 0.216483C0.368184 0.0721612 0.549048 0 0.761487 0C0.973926 0 1.15479 0.0721612 1.30408 0.216483L5.49761 4.27536L9.69113 0.216483C9.83373 0.0786382 10.013 0.00805487 10.2288 0.0047333C10.4445 0.00157781 10.627 0.0721612 10.7763 0.216483C10.9254 0.360972 11 0.536019 11 0.741624C11 0.947229 10.9254 1.12228 10.7763 1.26676L6.14908 5.74515C6.05264 5.83832 5.95097 5.90409 5.84406 5.94245C5.73716 5.98082 5.62167 6 5.49761 6Z" fill="black"/>
</svg>
