<svg width="300" height="183" viewBox="0 0 300 183" fill="none" xmlns="http://www.w3.org/2000/svg">
<rect width="300" height="183" rx="20" fill="#FEA800"/>
<path d="M217.293 133.833H201.1V112.588H206.941H217.293C218.788 112.588 220 111.388 220 109.905C220 108.422 218.788 107.222 217.293 107.222H209.65V103.436C209.65 99.1472 207.117 95.199 203.199 93.3807L198.262 91.0856V84.6533C199.844 83.2623 200.862 81.2559 200.862 78.9998C200.862 77.5924 200.448 76.2896 199.771 75.1586C201.57 73.7679 202.75 71.6244 202.75 69.1933C202.75 68.0567 202.479 66.9879 202.024 66.0189C204.41 64.7312 206.05 62.2538 206.05 59.3789C206.05 56.5056 204.414 54.0304 202.033 52.7411C202.484 51.7745 202.754 50.7085 202.754 49.575C202.754 46.5121 200.905 43.8829 198.262 42.6855V24.6828C198.262 23.1999 197.05 22 195.555 22C194.06 22 192.848 23.1999 192.848 24.6828V41.9876H171.409V36.2002V24.6828C171.409 23.1999 170.197 22 168.702 22C167.207 22 165.994 23.1999 165.994 24.6828V33.5147H162.176C157.849 33.5147 153.865 36.0246 152.028 39.9074L149.712 44.8015H141.952C140.548 43.2331 138.523 42.2234 136.246 42.2234C134.826 42.2234 133.511 42.6346 132.369 43.3057C130.966 41.5239 128.804 40.3554 126.352 40.3554C125.205 40.3554 124.126 40.6243 123.148 41.0743C121.849 38.7104 119.35 37.0831 116.447 37.0831C113.549 37.0831 111.051 38.7062 109.751 41.0651C108.775 40.6174 107.699 40.3502 106.555 40.3502C103.465 40.3502 100.812 42.1828 99.6041 44.8015H82.7072C81.2121 44.8015 80 46.0014 80 47.4843C80 48.9672 81.2121 50.1672 82.7072 50.1672H98.8998V71.4124H93.0573H82.7072C81.2121 71.4124 80 72.6123 80 74.0952C80 75.5781 81.2121 76.7781 82.7072 76.7781H90.3501V80.5639C90.3501 84.8528 92.8828 88.801 96.8007 90.6193L101.738 92.9144V99.3467C100.156 100.738 99.1378 102.744 99.1378 105C99.1378 106.408 99.5523 107.71 100.229 108.841C98.4299 110.232 97.2502 112.376 97.2502 114.807C97.2502 115.943 97.5215 117.012 97.9755 117.981C95.5904 119.269 93.9495 121.746 93.9495 124.621C93.9495 127.494 95.5865 129.97 97.9669 131.259C97.5155 132.226 97.2462 133.291 97.2462 134.425C97.2462 137.488 99.0955 140.117 101.738 141.314V159.317C101.738 160.8 102.95 162 104.445 162C105.94 162 107.152 160.8 107.152 159.317V142.012H128.591V147.8V159.317C128.591 160.8 129.803 162 131.298 162C132.793 162 134.006 160.8 134.006 159.317V150.485H137.824C142.151 150.485 146.135 147.975 147.972 144.093L150.288 139.199H158.048C159.452 140.767 161.477 141.777 163.754 141.777C165.174 141.777 166.489 141.365 167.631 140.694C169.034 142.476 171.196 143.645 173.648 143.645C174.795 143.645 175.874 143.376 176.852 142.926C178.151 145.29 180.65 146.917 183.553 146.917C186.451 146.917 188.949 145.294 190.249 142.935C191.225 143.383 192.301 143.65 193.445 143.65C196.535 143.65 199.188 141.817 200.396 139.199H217.293C218.788 139.199 220 137.999 220 136.516C220 135.033 218.788 133.833 217.293 133.833ZM143.902 50.1672H151.433C152.482 50.1672 153.438 49.5646 153.884 48.624L156.929 42.1868C157.88 40.1773 159.939 38.8804 162.176 38.8804H165.994V44.6705C165.994 46.1534 167.207 47.3533 168.702 47.3533H195.098C196.334 47.3533 197.339 48.3489 197.339 49.575C197.339 50.7828 196.36 51.7571 195.15 51.7863H180.255C179.503 51.7863 178.824 52.091 178.334 52.5811C177.843 53.0666 177.539 53.7375 177.539 54.4796C177.539 55.9625 178.752 57.1624 180.247 57.1624H195.098C195.133 57.1624 195.167 57.1525 195.202 57.152H198.392C199.629 57.152 200.636 58.1502 200.636 59.3789C200.636 60.6051 199.629 61.6033 198.392 61.6033H195.09H180.255C178.76 61.6033 177.547 62.8032 177.547 64.2861C177.547 65.769 178.76 66.9689 180.255 66.9689H195.09C196.328 66.9689 197.336 67.9671 197.336 69.1933C197.336 70.422 196.328 71.4202 195.09 71.4202H193.286C193.259 71.4199 193.234 71.4124 193.207 71.4124H180.247C178.752 71.4124 177.539 72.6123 177.539 74.0952C177.539 74.8386 177.845 75.5102 178.337 75.9958C178.827 76.4835 179.505 76.7859 180.255 76.7859H193.247C194.463 76.8079 195.448 77.7874 195.448 78.9998C195.448 80.2259 194.443 81.2215 193.207 81.2215H167.751C165.885 81.2215 164.061 80.577 162.616 79.4085L157.219 75.041C154.326 72.7014 150.678 71.4124 146.947 71.4124H143.902V50.1672ZM99.0981 85.7619C97.073 84.8213 95.7644 82.7804 95.7644 80.5639V76.7781H101.607C103.102 76.7781 104.314 75.5781 104.314 74.0952V47.9376C104.314 46.7114 105.319 45.7158 106.555 45.7158C107.774 45.7158 108.761 46.6882 108.787 47.8922V62.646C108.787 63.3906 109.094 64.0624 109.587 64.5483C110.077 65.0351 110.755 65.3367 111.504 65.3367C112.999 65.3367 114.211 64.1368 114.211 62.6539V47.9376C114.211 47.9065 114.202 47.8778 114.202 47.8469V44.6731C114.202 43.447 115.209 42.4488 116.447 42.4488C117.685 42.4488 118.692 43.447 118.692 44.6731V47.9454V62.646C118.692 64.1289 119.904 65.3288 121.399 65.3288C122.894 65.3288 124.106 64.1289 124.106 62.646V47.9454C124.106 46.7193 125.113 45.7211 126.352 45.7211C127.591 45.7211 128.598 46.7193 128.598 47.9454V49.746C128.598 49.7681 128.591 49.7887 128.591 49.8108V62.6539C128.591 64.1368 129.803 65.3367 131.298 65.3367C132.049 65.3367 132.727 65.0336 133.217 64.545C133.708 64.0595 134.012 63.3884 134.012 62.646V49.7784C134.031 48.5682 135.022 47.5891 136.246 47.5891C137.482 47.5891 138.488 48.5847 138.488 49.8108V75.0384C138.488 76.8881 137.838 78.6959 136.656 80.1264L132.251 85.4763C129.891 88.3425 128.591 91.9581 128.591 95.6575V97.4128H107.152V91.2088C107.152 90.1686 106.545 89.2202 105.594 88.7801L99.0981 85.7619ZM156.098 133.833H148.567C147.518 133.833 146.562 134.435 146.116 135.376L143.071 141.813C142.12 143.823 140.061 145.12 137.824 145.12H134.006V139.33C134.006 137.847 132.793 136.647 131.298 136.647H104.902C103.666 136.647 102.661 135.651 102.661 134.425C102.661 133.217 103.64 132.243 104.85 132.214H119.745C120.497 132.214 121.176 131.909 121.666 131.419C122.157 130.933 122.461 130.263 122.461 129.52C122.461 128.038 121.248 126.838 119.753 126.838H104.902C104.867 126.838 104.833 126.848 104.798 126.848H101.608C100.371 126.848 99.3638 125.85 99.3638 124.621C99.3638 123.395 100.371 122.397 101.608 122.397H104.91H119.745C121.24 122.397 122.453 121.197 122.453 119.714C122.453 118.231 121.24 117.031 119.745 117.031H104.91C103.672 117.031 102.664 116.033 102.664 114.807C102.664 113.578 103.672 112.58 104.91 112.58H106.714C106.741 112.58 106.766 112.588 106.793 112.588H119.753C121.248 112.588 122.461 111.388 122.461 109.905C122.461 109.161 122.155 108.49 121.663 108.004C121.173 107.517 120.495 107.214 119.745 107.214H106.753C105.537 107.192 104.552 106.213 104.552 105C104.552 103.774 105.557 102.779 106.793 102.779H131.285C131.29 102.779 131.294 102.781 131.298 102.781C131.303 102.781 131.307 102.779 131.311 102.779H132.249C134.115 102.779 135.939 103.423 137.384 104.592L142.781 108.959C145.674 111.299 149.322 112.588 153.053 112.588H156.098V133.833ZM156.25 107.222H153.053C150.566 107.222 148.134 106.363 146.206 104.804L140.809 100.436C138.857 98.8574 136.487 97.8885 134.006 97.5636V95.6575C134.006 93.1921 134.873 90.7791 136.447 88.8692L140.85 83.5218C142.445 81.5881 143.423 79.2382 143.75 76.7781H146.947C149.434 76.7781 151.866 77.6374 153.794 79.1963L159.191 83.5637C161.143 85.1426 163.513 86.1115 165.994 86.4364V88.3425C165.994 90.8079 165.127 93.2209 163.553 95.1309L159.15 100.478C157.555 102.412 156.577 104.762 156.25 107.222ZM198.393 107.222C196.898 107.222 195.686 108.422 195.686 109.905V136.062C195.686 137.289 194.681 138.284 193.445 138.284C192.226 138.284 191.239 137.312 191.213 136.108V121.354C191.213 120.609 190.906 119.938 190.413 119.452C189.923 118.965 189.245 118.663 188.496 118.663C187.001 118.663 185.789 119.863 185.789 121.346V136.062C185.789 136.094 185.798 136.122 185.798 136.153V139.327C185.798 140.553 184.791 141.551 183.553 141.551C182.315 141.551 181.308 140.553 181.308 139.327V136.055V121.354C181.308 119.871 180.096 118.671 178.601 118.671C177.106 118.671 175.894 119.871 175.894 121.354V136.055C175.894 137.281 174.887 138.279 173.648 138.279C172.409 138.279 171.402 137.281 171.402 136.055V134.254C171.402 134.232 171.409 134.211 171.409 134.189V121.346C171.409 119.863 170.197 118.663 168.702 118.663C167.951 118.663 167.273 118.966 166.783 119.455C166.292 119.941 165.988 120.612 165.988 121.354V134.222C165.969 135.432 164.978 136.411 163.754 136.411C162.518 136.411 161.512 135.415 161.512 134.189V108.962C161.512 107.112 162.162 105.304 163.344 103.874L167.749 98.5237C170.109 95.6575 171.409 92.0419 171.409 88.3425V86.5872H192.848V92.7912C192.848 93.8314 193.455 94.7798 194.406 95.2199L200.902 98.2381C202.927 99.1787 204.236 101.22 204.236 103.436V107.222H198.393Z" fill="white"/>
</svg>
