<svg width="123" height="89" viewBox="0 0 123 89" fill="none" xmlns="http://www.w3.org/2000/svg">
<path d="M120.363 1.14873C115.029 -2.00448 103.429 33.7988 90.3025 35.6638C77.1743 37.5288 66.5487 34.7653 65.365 37.7824C64.1814 40.7961 63.6319 41.2283 71.6452 41.5125C79.6599 41.8 83.6968 43.7161 81.1324 50.8394C78.5721 57.966 70.4405 86.8689 70.4405 86.8689C70.4405 86.8689 70.3883 89.3687 73.3065 88.9535C76.2232 88.54 81.0239 61.8849 90.8393 59.4226C100.656 56.9654 103.55 71.496 105.403 72.3009C107.255 73.1058 111.306 72.1715 108.392 66.5356C105.478 60.8997 100.009 44.2454 102.005 40.4013C103.994 36.5623 121.221 9.92256 121.221 9.92256C121.221 9.92256 125.701 4.30363 120.363 1.14873Z" fill="black"/>
<path d="M86.002 27.5195C92.2945 27.5195 97.3956 21.359 97.3956 13.7597C97.3956 6.16045 92.2945 0 86.002 0C79.7095 0 74.6084 6.16045 74.6084 13.7597C74.6084 21.359 79.7095 27.5195 86.002 27.5195Z" fill="black"/>
<path d="M1.36866 28.6069C5.33233 23.2602 27.222 51.1728 39.9697 46.9408C52.7174 42.7087 61.7016 35.3268 63.7419 37.5815C65.7737 39.8363 66.4177 39.9911 59.0807 43.8931C51.7438 47.7933 48.603 51.4042 53.1937 56.8377C57.783 62.278 74.314 85.3765 74.314 85.3765C74.314 85.3765 75.1383 87.6704 72.3047 88.6063C69.4725 89.5473 56.729 67.0222 46.8656 69.2038C36.998 71.3717 38.8439 86.1559 37.3756 87.7418C35.9074 89.3329 31.8662 90.3097 32.8131 83.7633C33.76 77.2136 33.6431 59.3 30.6023 56.6437C27.5602 53.9908 3.30752 37.1255 3.30752 37.1255C3.30752 37.1255 -2.5936 33.9519 1.36866 28.6069Z" fill="black"/>
<path d="M37.9883 44.6093C44.2809 44.6093 49.382 38.4488 49.382 30.8495C49.382 23.2502 44.2809 17.0898 37.9883 17.0898C31.6958 17.0898 26.5947 23.2502 26.5947 30.8495C26.5947 38.4488 31.6958 44.6093 37.9883 44.6093Z" fill="black"/>
</svg>
