<svg width="50" height="50" viewBox="0 0 50 50" fill="none" xmlns="http://www.w3.org/2000/svg">
<path d="M25 0C20.0555 0 15.222 1.46622 11.1108 4.21326C6.99952 6.96029 3.79521 10.8648 1.90302 15.4329C0.0108321 20.0011 -0.484251 25.0277 0.480379 29.8773C1.44501 34.7268 3.82603 39.1813 7.32234 42.6777C10.8187 46.174 15.2732 48.555 20.1228 49.5196C24.9723 50.4842 29.9989 49.9892 34.5671 48.097C39.1352 46.2048 43.0397 43.0005 45.7867 38.8892C48.5338 34.778 50 29.9445 50 25C50 18.3696 47.3661 12.0107 42.6777 7.32233C37.9893 2.63392 31.6304 0 25 0ZM38.2982 26.5982L16.8696 37.3125C16.5973 37.4486 16.2948 37.5128 15.9906 37.499C15.6865 37.4852 15.391 37.3939 15.1321 37.2338C14.8732 37.0737 14.6595 36.85 14.5114 36.5841C14.3633 36.3181 14.2856 36.0187 14.2857 35.7143V14.2857C14.2859 13.9814 14.3638 13.6823 14.5121 13.4166C14.6603 13.1508 14.874 12.9274 15.1329 12.7675C15.3917 12.6076 15.6871 12.5164 15.9911 12.5028C16.2951 12.4891 16.5975 12.5533 16.8696 12.6893L38.2982 23.4036C38.5944 23.552 38.8435 23.78 39.0176 24.0619C39.1916 24.3439 39.2838 24.6687 39.2838 25C39.2838 25.3313 39.1916 25.6561 39.0176 25.9381C38.8435 26.22 38.5944 26.448 38.2982 26.5964" fill="#FEA800"/>
</svg>
