<svg width="91" height="89" viewBox="0 0 91 89" fill="none" xmlns="http://www.w3.org/2000/svg">
<path d="M76.0119 20.0965C79.5596 20.0965 82.4355 18.1685 82.4355 15.7901C82.4355 13.4117 79.5596 11.4836 76.0119 11.4836C72.4643 11.4836 69.5884 13.4117 69.5884 15.7901C69.5884 18.1685 72.4643 20.0965 76.0119 20.0965Z" fill="black"/>
<path d="M65.3066 25.8386V33.016L69.589 34.4515V45.9354H82.4361V34.4515L86.7185 33.016V25.8386C86.7185 24.3158 85.8161 22.8553 84.2099 21.7785C82.6037 20.7016 80.4253 20.0967 78.1538 20.0967H73.8714C71.5999 20.0967 69.4214 20.7016 67.8152 21.7785C66.209 22.8553 65.3066 24.3158 65.3066 25.8386Z" fill="black"/>
<path d="M78.329 3.30735L76.0122 0L73.6955 3.30735L68.5181 3.83848L72.2651 6.4123L71.3808 10.0484L76.0122 8.33154L80.6436 10.0484L79.7593 6.4123L83.5064 3.83848L78.329 3.30735Z" fill="black"/>
<path d="M23.5013 59.6372L45.3628 48.0845L49.339 51.4665L52.8013 40.4979L36.0829 40.1936L40.0591 43.5756L18.1997 55.1284L23.5013 59.6372Z" fill="black"/>
<path d="M65.3058 78.9517C65.3051 78.4759 65.0229 78.0198 64.5211 77.6834C64.0193 77.347 63.3389 77.1578 62.6293 77.1573H60.4881C60.0622 77.1573 59.6538 77.0438 59.3527 76.8419C59.0516 76.64 58.8823 76.3662 58.8822 76.0807V68.9033H32.1174V76.0807C32.1173 76.3662 31.9481 76.64 31.6469 76.8419C31.3458 77.0438 30.9374 77.1573 30.5115 77.1573H28.3703C27.6605 77.1573 26.9797 77.3464 26.4778 77.6829C25.9758 78.0194 25.6938 78.4758 25.6938 78.9517C25.6938 79.4276 25.9758 79.884 26.4778 80.2205C26.9797 80.557 27.6605 80.7461 28.3703 80.7461H30.5115C30.9374 80.7461 31.3458 80.8596 31.6469 81.0615C31.9481 81.2634 32.1173 81.5372 32.1174 81.8227V89.0001H58.8822V81.8227C58.8823 81.5372 59.0516 81.2634 59.3527 81.0615C59.6538 80.8596 60.0622 80.7461 60.4881 80.7461H62.6293C63.3389 80.7456 64.0193 80.5564 64.5211 80.22C65.0229 79.8836 65.3051 79.4275 65.3058 78.9517Z" fill="black"/>
<path d="M22.4825 78.9517C22.484 77.9051 23.1049 76.9016 24.2088 76.1615C25.3128 75.4214 26.8095 75.0052 28.3707 75.0041H28.906V68.9033H0V89.0001H28.906V82.8993H28.3707C26.8095 82.8982 25.3128 82.482 24.2088 81.7419C23.1049 81.0018 22.484 79.9983 22.4825 78.9517Z" fill="black"/>
<path d="M62.0942 66.7499H70.1237V66.391C70.1237 65.344 70.7441 64.34 71.8483 63.5996C72.9526 62.8593 74.4503 62.4434 76.0119 62.4434C77.5736 62.4434 79.0713 62.8593 80.1756 63.5996C81.2798 64.34 81.9002 65.344 81.9002 66.391V66.7499H91.0002V47.3708H62.0942V66.7499Z" fill="black"/>
<path d="M78.6884 67.8265V66.391C78.6884 65.9151 78.4064 65.4587 77.9045 65.1222C77.4026 64.7857 76.7218 64.5967 76.0119 64.5967C75.3021 64.5967 74.6213 64.7857 74.1194 65.1222C73.6174 65.4587 73.3355 65.9151 73.3355 66.391V67.8265C73.3354 68.112 73.1661 68.3858 72.865 68.5877C72.5639 68.7896 72.1554 68.9031 71.7296 68.9031H62.0942V75.0039H62.6295C64.1912 75.0039 65.6889 75.4198 66.7932 76.1602C67.8974 76.9005 68.5178 77.9045 68.5178 78.9515C68.5178 79.9985 67.8974 81.0026 66.7932 81.7429C65.6889 82.4832 64.1912 82.8991 62.6295 82.8991H62.0942V88.9999H91.0002V68.9031H80.2943C79.8684 68.9031 79.46 68.7896 79.1589 68.5877C78.8578 68.3858 78.6885 68.112 78.6884 67.8265Z" fill="black"/>
</svg>
