<svg width="85" height="85" viewBox="0 0 85 85" fill="none" xmlns="http://www.w3.org/2000/svg">
<path d="M15.2587 0.731004C15.3853 -0.243668 16.8011 -0.243668 16.9241 0.731004C17.892 8.31966 23.8664 14.2904 31.4519 15.2587C32.4299 15.3852 32.4299 16.801 31.4519 16.9241C23.8666 17.892 17.8924 23.8664 16.9241 31.4519C16.801 32.4299 15.3852 32.4299 15.2587 31.4519C14.2909 23.8666 8.31984 17.8924 0.731004 16.9241C-0.243668 16.801 -0.243668 15.3852 0.731004 15.2587C8.31966 14.2909 14.2904 8.31984 15.2587 0.731004Z" fill="#B5B5B5"/>
<path d="M50.1584 19.6398C50.3841 17.8785 52.9353 17.8785 53.1576 19.6398C55.1924 35.5761 67.7431 48.127 83.6794 50.1581C85.4406 50.3838 85.4406 52.935 83.6794 53.1573C67.7431 55.1921 55.1922 67.7428 53.1576 83.6792C52.9353 85.4404 50.384 85.4404 50.1584 83.6792C48.127 67.7428 35.5764 55.1919 19.64 53.1573C17.8788 52.935 17.8788 50.3838 19.64 50.1581C35.5764 48.1267 48.1272 35.5761 50.1584 19.6398Z" fill="#B5B5B5"/>
</svg>
