<svg width="80" height="90" viewBox="0 0 80 90" fill="none" xmlns="http://www.w3.org/2000/svg">
<path d="M46.0296 25.0041C53.1349 25.0041 58.9155 19.3953 58.9155 12.502C58.9155 5.60879 53.1349 0 46.0296 0C38.9253 0 33.1448 5.60879 33.1448 12.502C33.1448 19.3953 38.9253 25.0041 46.0296 25.0041Z" fill="black"/>
<path d="M35.4961 21.2693L33.3147 25.527L37.7321 23.29C36.9128 22.6957 36.1611 22.0212 35.4961 21.2693Z" fill="black"/>
<path d="M72.9813 37.32C74.9438 37.32 76.54 35.7712 76.54 33.8671C76.54 31.9629 74.9438 30.4141 72.9813 30.4141C71.0198 30.4141 69.4246 31.9638 69.4246 33.8671C69.4246 35.7703 71.0198 37.32 72.9813 37.32Z" fill="black"/>
<path d="M20.635 26.8142C22.5975 26.8142 24.1937 25.2654 24.1937 23.3613C24.1937 22.1894 23.5752 21.1017 22.5803 20.4692L19.7007 26.6791C20.0034 26.7584 20.3111 26.8133 20.63 26.8133C20.632 26.8142 20.633 26.8142 20.635 26.8142Z" fill="black"/>
<path d="M28.3223 53.2195C22.4923 53.2195 17.749 57.8209 17.749 63.4776C17.749 69.1344 22.4913 73.7358 28.3223 73.7358C34.1502 73.7358 38.8935 69.1344 38.8935 63.4776C38.8935 57.8209 34.1502 53.2195 28.3223 53.2195Z" fill="black"/>
<path d="M28.3222 74.7137C25.8855 74.7137 23.6244 73.9756 21.7567 72.7234C18.4533 77.4305 17.1184 87.0621 16.8379 89.4049L36.9955 89.9991C37.3346 83.9664 33.8697 75.7378 32.9878 73.7523C31.5591 74.3672 29.982 74.7137 28.3222 74.7137Z" fill="black"/>
<path d="M50.4767 52.2402C50.9015 52.2402 51.3192 52.2656 51.7319 52.3087L50.6533 47.351C50.5504 46.8409 48.2257 34.9899 52.1658 31.2471L52.638 30.7987L52.9598 31.3597C53.1384 31.671 57.4014 38.8149 68.7748 35.59C68.5437 35.0604 68.4166 34.4779 68.4166 33.868C68.4166 33.4313 68.5024 33.0172 68.6245 32.6187C67.6064 32.8909 65.9658 33.2365 64.1809 33.2365C62.4938 33.2365 60.6796 32.9281 59.145 31.9569C56.9655 30.5775 52.3565 26.0495 51.2768 24.9785C49.6564 25.6227 47.8866 25.9839 46.0301 25.9839C43.327 25.9839 40.8106 25.2193 38.6755 23.9192L32.552 27.0197L30.0466 31.9109L36.3831 28.9964L36.483 29.6494C36.4991 29.7512 37.9965 39.933 33.8737 50.3242C33.6427 50.9058 33.3037 51.8916 32.893 53.1575C35.8362 54.3901 38.1418 56.775 39.2234 59.7228L39.5685 59.7394C41.1597 55.3769 45.4428 52.2402 50.4767 52.2402Z" fill="black"/>
<path d="M9.03555 66.5683C13.6245 66.5683 17.3577 62.945 17.3577 58.4914C17.3577 54.0389 13.6245 50.4165 9.03555 50.4165C4.44665 50.4165 0.713379 54.0389 0.713379 58.4914C0.71237 62.945 4.44665 66.5683 9.03555 66.5683Z" fill="black"/>
<path d="M9.03553 67.5472C7.10936 67.5472 5.31739 66.9774 3.83014 66.0033C1.29756 69.6952 0.246194 77.0427 0 79.0585L15.8513 79.5274C16.0743 74.8311 13.4519 68.5164 12.7032 66.8159C11.5762 67.2848 10.3371 67.5472 9.03553 67.5472Z" fill="black"/>
<path d="M34.2239 21.553L23.6718 18.1167L22.9948 19.5764C24.3478 20.3733 25.2025 21.8066 25.2025 23.3623C25.2025 25.8059 23.1532 27.7943 20.6347 27.7943H20.6307C20.1686 27.7943 19.7226 27.7052 19.2867 27.574L16.8298 32.8715L26.7724 36.0963L34.2239 21.553Z" fill="black"/>
<path d="M70.9626 66.5683C75.5525 66.5683 79.2868 62.945 79.2868 58.4914C79.2868 54.0389 75.5525 50.4165 70.9626 50.4165C66.3727 50.4165 62.6384 54.0389 62.6384 58.4914C62.6384 62.945 66.3727 66.5683 70.9626 66.5683Z" fill="black"/>
<path d="M70.9624 67.5473C69.6618 67.5473 68.4218 67.2859 67.2968 66.818C66.5461 68.5205 63.9247 74.8341 64.1477 79.5276L80 79.0586C79.7528 77.0418 78.6984 69.6943 76.1688 66.0034C74.6806 66.9775 72.8886 67.5473 70.9624 67.5473Z" fill="black"/>
<path d="M50.4768 74.7135C48.816 74.7135 47.238 74.3669 45.8082 73.7531C44.9274 75.7356 41.4645 83.9691 41.8035 89.9998L61.9592 89.4056C61.6787 87.0628 60.3448 77.4322 57.0393 72.7251C55.1717 73.9753 52.9126 74.7135 50.4768 74.7135Z" fill="black"/>
<path d="M50.4766 73.7348C56.3035 73.7348 61.0458 69.1334 61.0458 63.4766C61.0458 57.8199 56.3035 53.2195 50.4766 53.2195C44.6456 53.2195 39.9023 57.8209 39.9023 63.4776C39.9023 69.1344 44.6446 73.7348 50.4766 73.7348Z" fill="black"/>
</svg>
